<!DOCTYPE svg PUBLIC "-//W3C//DTD SVG 1.1//EN" "http://www.w3.org/Graphics/SVG/1.1/DTD/svg11.dtd">
<!-- Uploaded to: SVG Repo, www.svgrepo.com, Transformed by: SVG Repo Mixer Tools -->
<svg width="229px" height="229px" viewBox="0 0 16.00 16.00" fill="none" xmlns="http://www.w3.org/2000/svg" stroke="#2aed1d" stroke-width="0.8" transform="matrix(1, 0, 0, 1, 0, 0)rotate(0)">
<g id="SVGRepo_bgCarrier" stroke-width="0"/>
<g id="SVGRepo_tracerCarrier" stroke-linecap="round" stroke-linejoin="round" stroke="#eeff00" stroke-width="0.8"> <path fill-rule="evenodd" clip-rule="evenodd" d="M8 16L4.35009 13.3929C2.24773 11.8912 1 9.46667 1 6.88306V3L8 0L15 3V6.88306C15 9.46667 13.7523 11.8912 11.6499 13.3929L8 16ZM12.2071 5.70711L10.7929 4.29289L7 8.08579L5.20711 6.29289L3.79289 7.70711L7 10.9142L12.2071 5.70711Z" fill="#147500"/> </g>
<g id="SVGRepo_iconCarrier"> <path fill-rule="evenodd" clip-rule="evenodd" d="M8 16L4.35009 13.3929C2.24773 11.8912 1 9.46667 1 6.88306V3L8 0L15 3V6.88306C15 9.46667 13.7523 11.8912 11.6499 13.3929L8 16ZM12.2071 5.70711L10.7929 4.29289L7 8.08579L5.20711 6.29289L3.79289 7.70711L7 10.9142L12.2071 5.70711Z" fill="#147500"/> </g>
</svg>